# xmcd CD database file
#
# Track frame offsets:
#	150
#	13480
#	25099
#	36979
#	50158
#	66874
#	83026
#	96469
#	110902
#	125541
#
# Disc length: 1846 seconds
#
# Revision: 2
# Processed by: cddbd v1.5.1PL0 Copyright (c) Steve Scherf et al.
# Submitted via: CdAid (MTCDDB.DLL V2003.12.21)
#
DISCID=9207340a
DTITLE=João Vinicios - Mania Brasileira
DYEAR=2005
DGENRE=Gospel
TTITLE0=João Vinicios - Intro
TTITLE1=João Vinicios - Mania Brasileira
TTITLE2=João Vinicios - Pombinha
TTITLE3=João Vinicios - Cowboy do Sul
TTITLE4=João Vinicios - Vou Abrir a Mão
TTITLE5=João Vinicios - Tentando te esquecer
TTITLE6=João Vinicios - Amigo
TTITLE7=João Vinicios - Intro 2
TTITLE8=João Vinicios - Desafio a Paulino
TTITLE9=João Vinicios - Velhos esteios
EXTD=Produzido e Masterizado: Studio R Produções ID3G:  38 YEAR: 2005
EXTT0=
EXTT1=
EXTT2=
EXTT3=
EXTT4=
EXTT5=
EXTT6=
EXTT7=
EXTT8=
EXTT9=
PLAYORDER=
